<svg width="49" height="49" viewBox="0 0 49 49" fill="none" xmlns="http://www.w3.org/2000/svg">
<path d="M5.88892 36.6431H43.8889V38.6431C43.8889 40.8522 42.0981 42.6431 39.8889 42.6431H9.88892C7.67978 42.6431 5.88892 40.8522 5.88892 38.6431V36.6431Z" fill="url(#paint0_linear_622_1422)"/>
<path d="M24.8889 16.0211V39.6431H41.236C43.6843 39.6431 45.5581 37.4634 45.1907 35.0428L42.5697 17.7742C42.4002 16.6578 41.7673 15.6594 40.7381 15.195C39.2164 14.5083 36.6859 13.6431 33.5963 13.6431C28.4744 13.6431 24.8889 16.0211 24.8889 16.0211Z" fill="url(#paint1_linear_622_1422)"/>
<path d="M24.8889 16.0211V39.6431H8.54185C6.09357 39.6431 4.21975 37.4634 4.58714 35.0428L7.20818 17.7742C7.37761 16.6578 8.01053 15.6594 9.03972 15.195C10.5614 14.5083 13.0919 13.6431 16.1815 13.6431C21.3034 13.6431 24.8889 16.0211 24.8889 16.0211Z" fill="url(#paint2_linear_622_1422)"/>
<path d="M24.8889 16.0209V39.6429C24.8889 39.6429 27.1877 34.6622 36.4805 33.4206C38.8261 33.1072 40.684 31.1045 40.4446 28.7502C39.8546 22.9483 38.9562 14.1777 38.5728 10.4362C38.4682 9.41603 37.6086 8.64907 36.5882 8.75169C34.8145 8.93009 32.0624 9.4008 29.8889 10.6428C26.3889 12.6428 24.8889 16.0209 24.8889 16.0209Z" fill="url(#paint3_linear_622_1422)"/>
<path d="M15.7493 4.91549C20.8034 6.0624 24.0571 10.736 24.8889 16.143V39.6429L23.8889 38.1429C23.8889 38.1429 21.3917 34.2689 13.817 33.5993C11.2856 33.3755 9.18233 31.2446 9.49427 28.7225L12.0635 7.95027C12.2987 6.04878 13.8808 4.49148 15.7493 4.91549Z" fill="url(#paint4_linear_622_1422)"/>
<defs>
<linearGradient id="paint0_linear_622_1422" x1="43.8889" y1="44.0493" x2="42.1997" y2="32.2635" gradientUnits="userSpaceOnUse">
<stop stop-color="#3662FD"/>
<stop offset="1" stop-color="#8673FF"/>
</linearGradient>
<linearGradient id="paint1_linear_622_1422" x1="35.771" y1="13.9561" x2="35.771" y2="39.6407" gradientUnits="userSpaceOnUse">
<stop stop-color="#0D51FF"/>
<stop offset="1" stop-color="#7280FF"/>
</linearGradient>
<linearGradient id="paint2_linear_622_1422" x1="14.0068" y1="13.9561" x2="14.0068" y2="39.6407" gradientUnits="userSpaceOnUse">
<stop stop-color="#0D51FF"/>
<stop offset="1" stop-color="#7280FF"/>
</linearGradient>
<linearGradient id="paint3_linear_622_1422" x1="40.8889" y1="46.9085" x2="14.187" y2="31.7262" gradientUnits="userSpaceOnUse">
<stop stop-color="#819CFF"/>
<stop offset="1" stop-color="#CFC8FF"/>
</linearGradient>
<linearGradient id="paint4_linear_622_1422" x1="24.8889" y1="47.8452" x2="-3.29577" y2="33.6496" gradientUnits="userSpaceOnUse">
<stop stop-color="#D5E0FF"/>
<stop offset="1" stop-color="#F0E1FF"/>
</linearGradient>
</defs>
</svg>
