<svg width="49" height="49" viewBox="0 0 49 49" fill="none" xmlns="http://www.w3.org/2000/svg">
<path d="M24.8889 27.0118L7.38892 36.5118L11.613 20.5542C11.7937 19.8715 12.152 19.2488 12.6514 18.7494L24.8889 6.51184V27.0118Z" fill="url(#paint0_linear_622_955)"/>
<path d="M24.8889 27.0118L42.3889 36.5118L38.1648 20.5542C37.9841 19.8715 37.6258 19.2488 37.1264 18.7494L24.8889 6.51184V27.0118Z" fill="url(#paint1_linear_622_955)"/>
<path d="M42.8889 36.5118L24.8889 27.0118L6.88892 36.5118L23.72 41.6547C24.4819 41.8875 25.2959 41.8875 26.0578 41.6547L42.8889 36.5118Z" fill="url(#paint2_linear_622_955)"/>
<path d="M6.93856 26.7415C7.29592 25.4079 8.6674 24.6166 10.0011 24.974C11.3344 25.3315 12.1259 26.702 11.7686 28.0355L10.7423 31.8656L17.7628 27.8118L17.9903 27.6947C19.1461 27.1751 20.5306 27.6058 21.1778 28.7269C21.8248 29.8479 21.5054 31.2621 20.4776 32.0032L20.2628 32.1409L13.2423 36.1947L17.0714 37.221C18.405 37.5784 19.1962 38.9489 18.839 40.2825C18.4816 41.6162 17.1111 42.4075 15.7774 42.0501L6.11825 39.4622C4.78469 39.1049 3.99342 37.7343 4.35067 36.4007L6.93856 26.7415ZM39.7774 24.974C41.1111 24.6166 42.4826 25.4079 42.8399 26.7415L45.4278 36.4007C45.785 37.7342 44.9936 39.1047 43.6602 39.4622L34.0011 42.0501C32.6674 42.4075 31.2959 41.6162 30.9386 40.2825C30.5814 38.9491 31.3728 37.5785 32.7061 37.221L36.5362 36.1947L29.5157 32.1409L29.3009 32.0032C28.2731 31.2621 27.9535 29.8479 28.6007 28.7269C29.2479 27.6058 30.6324 27.1751 31.7882 27.6947L32.0157 27.8118L39.0362 31.8656L38.0098 28.0355C37.6525 26.7019 38.4439 25.3314 39.7774 24.974ZM23.172 5.69465C24.1353 4.78479 25.6421 4.78498 26.6056 5.69465L32.6056 11.3616L32.7823 11.5462C33.6105 12.5048 33.5946 13.9539 32.7061 14.8948C31.8175 15.8356 30.3716 15.9344 29.3673 15.1624L29.172 14.9964L27.3888 13.3118V19.512C27.3884 20.8923 26.2691 22.0119 24.8888 22.012C23.5084 22.0118 22.3891 20.8923 22.3888 19.512V13.3118L20.6056 14.9964C19.6019 15.9442 18.0194 15.8983 17.0714 14.8948C16.1239 13.8912 16.1688 12.3096 17.172 11.3616L23.172 5.69465Z" fill="url(#paint3_linear_622_955)"/>
<defs>
<linearGradient id="paint0_linear_622_955" x1="24.8889" y1="43.5431" x2="-2.46282" y2="25.9662" gradientUnits="userSpaceOnUse">
<stop stop-color="#D5E0FF"/>
<stop offset="1" stop-color="#F0E1FF"/>
</linearGradient>
<linearGradient id="paint1_linear_622_955" x1="24.8889" y1="43.5431" x2="52.2407" y2="25.9662" gradientUnits="userSpaceOnUse">
<stop stop-color="#819CFF"/>
<stop offset="1" stop-color="#CFC8FF"/>
</linearGradient>
<linearGradient id="paint2_linear_622_955" x1="42.8889" y1="45.5275" x2="32.9392" y2="19.221" gradientUnits="userSpaceOnUse">
<stop stop-color="#819CFF"/>
<stop offset="1" stop-color="#CFC8FF"/>
</linearGradient>
<linearGradient id="paint3_linear_622_955" x1="45.5136" y1="50.8369" x2="9.0512" y2="6.20522" gradientUnits="userSpaceOnUse">
<stop stop-color="#3662FD"/>
<stop offset="1" stop-color="#8673FF"/>
</linearGradient>
</defs>
</svg>
