<svg width="48" height="48" viewBox="0 0 48 48" fill="none" xmlns="http://www.w3.org/2000/svg">
<path d="M20.0004 33H22.5004C22.5004 32.6003 22.4045 32.2065 22.2209 31.8514L20.0004 33ZM5.00037 33L2.77982 31.8514C2.5962 32.2065 2.50037 32.6003 2.50037 33H5.00037ZM12.5004 18.5L14.7209 17.3514C14.2915 16.5213 13.435 16 12.5004 16C11.5658 16 10.7092 16.5213 10.2798 17.3514L12.5004 18.5ZM43.0001 33H45.5001C45.5001 32.6003 45.4043 32.2065 45.2207 31.8514L43.0001 33ZM28.0001 33L25.7796 31.8514C25.596 32.2065 25.5001 32.6003 25.5001 33H28.0001ZM35.5001 18.5L37.7207 17.3514C37.2913 16.5213 36.4347 16 35.5001 16C34.5655 16 33.709 16.5213 33.2796 17.3514L35.5001 18.5ZM3.50012 14C3.50012 15.3807 4.61941 16.5 6.00012 16.5C7.38083 16.5 8.50012 15.3807 8.50012 14H3.50012ZM39.5001 14C39.5001 15.3807 40.6194 16.5 42.0001 16.5C43.3808 16.5 44.5001 15.3807 44.5001 14H39.5001ZM20.0004 33H17.5004C17.5004 34.258 17.1025 36.02 16.2146 37.3909C15.3855 38.6709 14.2302 39.5 12.5004 39.5V42V44.5C16.2705 44.5 18.8652 42.4958 20.4111 40.1091C21.8982 37.8133 22.5004 35.0754 22.5004 33H20.0004ZM12.5004 42V39.5C10.7705 39.5 9.61523 38.6709 8.78615 37.3909C7.8982 36.02 7.50037 34.258 7.50037 33H5.00037H2.50037C2.50037 35.0754 3.10253 37.8133 4.58958 40.1091C6.1355 42.4958 8.73022 44.5 12.5004 44.5V42ZM5.00037 33L7.22091 34.1486L14.7209 19.6486L12.5004 18.5L10.2798 17.3514L2.77982 31.8514L5.00037 33ZM12.5004 18.5L10.2798 19.6486L17.7798 34.1486L20.0004 33L22.2209 31.8514L14.7209 17.3514L12.5004 18.5ZM20.0004 33V30.5H5.00037V33V35.5H20.0004V33ZM43.0001 33H40.5001C40.5001 34.258 40.1023 36.02 39.2143 37.3909C38.3853 38.6709 37.23 39.5 35.5001 39.5V42V44.5C39.2703 44.5 41.865 42.4958 43.4109 40.1091C44.898 37.8133 45.5001 35.0754 45.5001 33H43.0001ZM35.5001 42V39.5C33.7703 39.5 32.615 38.6709 31.7859 37.3909C30.898 36.02 30.5001 34.258 30.5001 33H28.0001H25.5001C25.5001 35.0754 26.1023 37.8133 27.5893 40.1091C29.1353 42.4958 31.73 44.5 35.5001 44.5V42ZM28.0001 33L30.2207 34.1486L37.7207 19.6486L35.5001 18.5L33.2796 17.3514L25.7796 31.8514L28.0001 33ZM35.5001 18.5L33.2796 19.6486L40.7796 34.1486L43.0001 33L45.2207 31.8514L37.7207 17.3514L35.5001 18.5ZM43.0001 33V30.5H28.0001V33V35.5H43.0001V33ZM10.0001 10V7.5C6.41027 7.5 3.50012 10.4101 3.50012 14H6.00012H8.50012C8.50012 13.1716 9.1717 12.5 10.0001 12.5V10ZM38.0001 10V12.5C38.8285 12.5 39.5001 13.1716 39.5001 14H42.0001H44.5001C44.5001 10.4102 41.59 7.5 38.0001 7.5V10ZM10.0001 10V12.5H38.0001V10V7.5H10.0001V10Z" fill="url(#paint0_linear_622_1504)"/>
<path fill-rule="evenodd" clip-rule="evenodd" d="M6.00024 34.2308C6.00024 33.551 6.61291 33 7.36867 33H17.6318C18.3876 33 19.0002 33.551 19.0002 34.2308C19.0002 35.4576 18.6022 37.0825 17.6258 38.4383C16.6171 39.839 14.9402 41 12.5002 41C10.0603 41 8.38342 39.839 7.37474 38.4383C6.39827 37.0825 6.00024 35.4576 6.00024 34.2308Z" fill="url(#paint1_linear_622_1504)"/>
<path fill-rule="evenodd" clip-rule="evenodd" d="M29.0002 34.2308C29.0002 33.551 29.6129 33 30.3686 33H40.6318C41.3875 33 42.0002 33.551 42.0002 34.2308C42.0002 35.4576 41.6022 37.0825 40.6257 38.4383C39.617 39.839 37.9402 41 35.5002 41C33.0602 41 31.3834 39.839 30.3747 38.4383C29.3982 37.0825 29.0002 35.4576 29.0002 34.2308Z" fill="url(#paint2_linear_622_1504)"/>
<circle cx="24.0001" cy="10" r="6" fill="url(#paint3_linear_622_1504)"/>
<defs>
<linearGradient id="paint0_linear_622_1504" x1="43.0001" y1="49.5" x2="12.0493" y2="9.01049" gradientUnits="userSpaceOnUse">
<stop stop-color="#819CFF"/>
<stop offset="1" stop-color="#CFC8FF"/>
</linearGradient>
<linearGradient id="paint1_linear_622_1504" x1="42.0002" y1="42.875" x2="38.8917" y2="27.4648" gradientUnits="userSpaceOnUse">
<stop stop-color="#3662FD"/>
<stop offset="1" stop-color="#8673FF"/>
</linearGradient>
<linearGradient id="paint2_linear_622_1504" x1="42.0002" y1="42.875" x2="38.8917" y2="27.4648" gradientUnits="userSpaceOnUse">
<stop stop-color="#3662FD"/>
<stop offset="1" stop-color="#8673FF"/>
</linearGradient>
<linearGradient id="paint3_linear_622_1504" x1="30.0001" y1="18.8125" x2="18.0284" y2="5.62393" gradientUnits="userSpaceOnUse">
<stop stop-color="#3662FD"/>
<stop offset="1" stop-color="#8673FF"/>
</linearGradient>
</defs>
</svg>
