<svg width="48" height="48" viewBox="0 0 48 48" fill="none" xmlns="http://www.w3.org/2000/svg">
<path d="M5 36H43V38C43 40.2091 41.2091 42 39 42H9C6.79086 42 5 40.2091 5 38V36Z" fill="url(#paint0_linear_622_1422)"/>
<path d="M24 15.378V39H40.3471C42.7953 39 44.6692 36.8203 44.3018 34.3998L41.6807 17.1311C41.5113 16.0148 40.8784 15.0164 39.8492 14.5519C38.3275 13.8653 35.797 13 32.7074 13C27.5855 13 24 15.378 24 15.378Z" fill="url(#paint1_linear_622_1422)"/>
<path d="M24 15.378V39H7.65293C5.20465 39 3.33083 36.8203 3.69823 34.3998L6.31926 17.1311C6.4887 16.0148 7.12162 15.0164 8.15081 14.5519C9.67252 13.8653 12.203 13 15.2926 13C20.4145 13 24 15.378 24 15.378Z" fill="url(#paint2_linear_622_1422)"/>
<path d="M24 15.3779V38.9998C24 38.9998 26.2988 34.0191 35.5915 32.7775C37.9372 32.4641 39.7951 30.4614 39.5557 28.1071C38.9657 22.3052 38.0673 13.5346 37.6839 9.79318C37.5793 8.77297 36.7197 8.006 35.6993 8.10863C33.9255 8.28702 31.1735 8.75774 29 9.99976C25.5 11.9998 24 15.3779 24 15.3779Z" fill="url(#paint3_linear_622_1422)"/>
<path d="M14.8603 4.27242C19.9145 5.41934 23.1682 10.0929 24 15.4999V38.9999L23 37.4999C23 37.4999 20.5027 33.6258 12.9281 32.9562C10.3967 32.7324 8.29341 30.6015 8.60536 28.0794L11.1746 7.30721C11.4097 5.40571 12.9919 3.84842 14.8603 4.27242Z" fill="url(#paint4_linear_622_1422)"/>
<defs>
<linearGradient id="paint0_linear_622_1422" x1="43" y1="43.4062" x2="41.3108" y2="31.6205" gradientUnits="userSpaceOnUse">
<stop stop-color="#3662FD"/>
<stop offset="1" stop-color="#8673FF"/>
</linearGradient>
<linearGradient id="paint1_linear_622_1422" x1="34.8821" y1="13.313" x2="34.8821" y2="38.9976" gradientUnits="userSpaceOnUse">
<stop stop-color="#0D51FF"/>
<stop offset="1" stop-color="#7280FF"/>
</linearGradient>
<linearGradient id="paint2_linear_622_1422" x1="13.1179" y1="13.313" x2="13.1179" y2="38.9976" gradientUnits="userSpaceOnUse">
<stop stop-color="#0D51FF"/>
<stop offset="1" stop-color="#7280FF"/>
</linearGradient>
<linearGradient id="paint3_linear_622_1422" x1="40" y1="46.2655" x2="13.2981" y2="31.0831" gradientUnits="userSpaceOnUse">
<stop stop-color="#819CFF"/>
<stop offset="1" stop-color="#CFC8FF"/>
</linearGradient>
<linearGradient id="paint4_linear_622_1422" x1="24" y1="47.2021" x2="-4.18468" y2="33.0066" gradientUnits="userSpaceOnUse">
<stop stop-color="#D5E0FF"/>
<stop offset="1" stop-color="#F0E1FF"/>
</linearGradient>
</defs>
</svg>
