<svg width="16" height="16" viewBox="0 0 16 16" fill="none" xmlns="http://www.w3.org/2000/svg">
<path d="M1.84668 12.2627C2.08707 12.4121 2.37308 12.5002 2.6874 12.5002H11.4152C12.9651 12.5002 14.3071 11.4237 14.6433 9.91068C14.764 9.36745 14.8276 8.81315 14.8331 8.25684V11.6668C14.8331 13.2316 13.5645 14.5001 11.9997 14.5001H4.33305C3.04103 14.5001 1.97792 13.52 1.84668 12.2627Z" fill="#614BD0"/>
<path opacity="0.4" d="M4.66656 2.16663C3.10176 2.16663 1.83323 3.43515 1.83323 4.99996V7.40431C1.83323 8.3864 1.62713 9.35757 1.22827 10.255C0.759039 11.3108 1.53185 12.5 2.6872 12.5H11.415C12.9649 12.5 14.3069 11.4235 14.6431 9.91049C14.7695 9.34177 14.8332 8.76092 14.8332 8.17833V4.99996C14.8332 3.43515 13.5647 2.16663 11.9999 2.16663H4.66656Z" fill="#614BD0"/>
<path d="M5.99967 1.5C6.27582 1.5 6.49967 1.72386 6.49967 2V3.33333C6.49967 3.60948 6.27582 3.83333 5.99967 3.83333C5.72353 3.83333 5.49967 3.60948 5.49967 3.33333V2C5.49967 1.72386 5.72353 1.5 5.99967 1.5Z" fill="#614BD0"/>
<path d="M10.6663 1.5C10.9425 1.5 11.1663 1.72386 11.1663 2V3.33333C11.1663 3.60948 10.9425 3.83333 10.6663 3.83333C10.3902 3.83333 10.1663 3.60948 10.1663 3.33333V2C10.1663 1.72386 10.3902 1.5 10.6663 1.5Z" fill="#614BD0"/>
<path d="M4.83301 6C4.83301 5.72386 5.05687 5.5 5.33301 5.5H5.49967C5.77582 5.5 5.99967 5.72386 5.99967 6C5.99967 6.27614 5.77582 6.5 5.49967 6.5H5.33301C5.05687 6.5 4.83301 6.27614 4.83301 6Z" fill="#614BD0"/>
<path d="M5.33301 8.16667C5.05687 8.16667 4.83301 8.39052 4.83301 8.66667C4.83301 8.94281 5.05687 9.16667 5.33301 9.16667H5.49967C5.77582 9.16667 5.99967 8.94281 5.99967 8.66667C5.99967 8.39052 5.77582 8.16667 5.49967 8.16667H5.33301Z" fill="#614BD0"/>
<path d="M7.49967 6C7.49967 5.72386 7.72353 5.5 7.99967 5.5H8.16634C8.44248 5.5 8.66634 5.72386 8.66634 6C8.66634 6.27614 8.44248 6.5 8.16634 6.5H7.99967C7.72353 6.5 7.49967 6.27614 7.49967 6Z" fill="#614BD0"/>
<path d="M7.99967 8.16667C7.72353 8.16667 7.49967 8.39052 7.49967 8.66667C7.49967 8.94281 7.72353 9.16667 7.99967 9.16667H8.16634C8.44248 9.16667 8.66634 8.94281 8.66634 8.66667C8.66634 8.39052 8.44248 8.16667 8.16634 8.16667H7.99967Z" fill="#614BD0"/>
<path d="M10.1663 6C10.1663 5.72386 10.3902 5.5 10.6663 5.5H10.833C11.1091 5.5 11.333 5.72386 11.333 6C11.333 6.27614 11.1091 6.5 10.833 6.5H10.6663C10.3902 6.5 10.1663 6.27614 10.1663 6Z" fill="#614BD0"/>
<path d="M10.6663 8.16667C10.3902 8.16667 10.1663 8.39052 10.1663 8.66667C10.1663 8.94281 10.3902 9.16667 10.6663 9.16667H10.833C11.1091 9.16667 11.333 8.94281 11.333 8.66667C11.333 8.39052 11.1091 8.16667 10.833 8.16667H10.6663Z" fill="#614BD0"/>
</svg>
