<svg width="18" height="18" viewBox="0 0 18 18" fill="none" xmlns="http://www.w3.org/2000/svg">
<path opacity="0.4" d="M8.99995 0.937292C4.54721 0.937292 0.937548 4.54695 0.937548 8.9997C0.937548 13.4524 4.54721 17.0621 8.99995 17.0621C13.4527 17.0621 17.0624 13.4524 17.0624 8.9997C17.0624 4.54695 13.4527 0.937292 8.99995 0.937292Z" fill="white"/>
<path d="M0.997493 8.01164C1.16752 8.03435 1.34624 8.05069 1.5315 8.06313C4.88495 8.21492 7.50654 7.79389 9.487 7.14737C8.55001 5.57194 7.48778 4.3657 6.37598 3.10319C6.23942 2.94812 6.1021 2.79218 5.96419 2.63462C5.78605 2.45733 5.48794 2.17743 5.16459 1.90627C5.52628 1.71029 5.90465 1.54117 6.29702 1.40159C6.48844 1.57487 6.65434 1.73378 6.77268 1.85211C6.7815 1.86094 6.79003 1.87005 6.79825 1.87945C6.9391 2.04042 7.0806 2.20098 7.22244 2.36193C8.36894 3.66291 9.53743 4.98885 10.5592 6.7518C12.695 5.86623 13.8681 4.74995 14.2958 4.05503C14.303 4.04324 14.3107 4.03172 14.3188 4.02049C14.4284 3.86875 14.5822 3.60781 14.7038 3.30165C14.9941 3.59224 15.2624 3.90488 15.5058 4.23684C15.4153 4.40364 15.3242 4.5481 15.2431 4.66212C14.6612 5.59553 13.3079 6.8092 11.095 7.747C11.3054 8.16896 11.5076 8.61509 11.7001 9.08992C13.5362 8.85287 15.2002 9.15242 16.3185 9.59644C16.5182 9.66383 16.762 9.76141 17.0141 9.88665C16.9707 10.2838 16.8984 10.6722 16.7994 11.0499C16.511 10.8771 16.1919 10.74 15.9469 10.6584C15.9365 10.6549 15.9261 10.6511 15.9159 10.647C15.0194 10.2884 13.647 10.0225 12.1052 10.1758C12.5958 11.6084 13.0044 13.2809 13.3056 15.2876C13.3324 15.4518 13.3542 15.6147 13.3713 15.7754C13.0272 15.9979 12.665 16.1948 12.2874 16.3636C12.2758 16.0804 12.2458 15.7775 12.1947 15.4655L12.1935 15.4581C11.8879 13.4208 11.4717 11.7592 10.9786 10.3612C8.8835 10.8461 6.6069 12.1814 4.83229 15.1391C4.73331 15.3041 4.64937 15.5156 4.59645 15.7545C4.26054 15.535 3.94199 15.2912 3.64333 15.0255C3.70783 14.8567 3.78355 14.7004 3.86762 14.5603C5.76253 11.4021 8.23249 9.88305 10.5707 9.30218C10.4 8.89554 10.2222 8.51252 10.0381 8.14945C7.8885 8.88167 5.06312 9.34981 1.47445 9.18669L1.46257 9.18602C1.29462 9.17483 1.11842 9.16013 0.938716 9.13838C0.937938 9.09226 0.937548 9.04605 0.937548 8.99974C0.937548 8.66522 0.957921 8.33547 0.997493 8.01164Z" fill="white"/>
</svg>
