<svg width="18" height="18" viewBox="0 0 18 18" fill="none" xmlns="http://www.w3.org/2000/svg">
<path opacity="0.4" d="M10.4999 0.937292C8.32532 0.937292 6.56246 2.70015 6.56246 4.87475V6.93722H5.24998C4.93932 6.93722 4.68748 7.18906 4.68748 7.49971V10.4997C4.68748 10.8103 4.93932 11.0622 5.24998 11.0622H6.56246V16.4996C6.56246 16.8103 6.8143 17.0621 7.12496 17.0621H10.1249C10.4356 17.0621 10.6874 16.8103 10.6874 16.4996V11.0622H12.3749C12.633 11.0622 12.858 10.8865 12.9206 10.6361L13.6706 7.63614C13.7126 7.4681 13.6748 7.29008 13.5682 7.15355C13.4616 7.01702 13.2981 6.93722 13.1249 6.93722H10.6874V5.81223C10.6874 5.39803 11.0232 5.06224 11.4374 5.06224H13.1249C13.4355 5.06224 13.6874 4.81041 13.6874 4.49975V1.49979C13.6874 1.18913 13.4355 0.937292 13.1249 0.937292H10.4999Z" fill="white"/>
<path d="M9.4291 1.09547C7.79435 1.57432 6.60046 3.08506 6.60046 4.87464V5.81213C6.60046 5.39792 6.93624 5.06214 7.35045 5.06214H9.03793C9.34859 5.06214 9.60043 4.8103 9.60043 4.49965V1.49968C9.60043 1.34104 9.53475 1.19773 9.4291 1.09547Z" fill="white"/>
</svg>
