<svg width="18" height="18" viewBox="0 0 18 18" fill="none" xmlns="http://www.w3.org/2000/svg">
<path opacity="0.4" fill-rule="evenodd" clip-rule="evenodd" d="M14.2415 0.937835C14.0778 0.934246 13.8548 0.947539 13.5793 1.00554C13.0767 1.11136 12.4124 1.36312 11.6225 1.9142C10.8863 1.68917 10.1166 1.5899 9.34606 1.62127H9.3361C8.56561 1.58991 7.79607 1.68915 7.05993 1.91413C6.27104 1.36306 5.60674 1.11132 5.10384 1.00553C4.82814 0.947526 4.60494 0.934249 4.44107 0.937834C4.35929 0.939623 4.29271 0.945602 4.24215 0.952166C4.21689 0.955446 4.19565 0.95887 4.17855 0.961981C4.17 0.963536 4.16249 0.965011 4.15602 0.966353L4.14826 0.968003L4.1438 0.968996L4.14119 0.969593L4.13977 0.96992C3.96367 1.01093 3.81802 1.13408 3.74832 1.30092C3.39587 2.14453 3.3415 3.07915 3.58746 3.95227C2.9001 4.73782 2.69655 5.75372 2.65264 6.53733C2.62753 6.98551 2.65289 7.38579 2.6842 7.67371C2.69993 7.81827 2.71733 7.93607 2.73112 8.01928C2.73802 8.06093 2.74403 8.09403 2.74851 8.11761L2.75379 8.14468L2.7541 8.1462L2.75533 8.15219L2.75548 8.15299C2.97204 9.26383 3.57396 10.2625 4.45511 10.9729C5.0715 11.4698 5.79679 11.8033 6.56431 11.9505C6.43373 12.2711 6.37125 12.6155 6.38091 12.9616V16.4996C6.38091 16.8103 6.63275 17.0621 6.9434 17.0621H11.7437C12.0544 17.0621 12.3062 16.8103 12.3062 16.4996V12.9616C12.3159 12.6155 12.2534 12.2711 12.1228 11.9505C12.8903 11.8033 13.6156 11.4698 14.232 10.9729C15.1134 10.2624 15.7154 9.26326 15.9318 8.15207L15.933 8.14607L15.9334 8.14454L15.9385 8.11839L15.9386 8.11748C15.9431 8.09389 15.9491 8.0608 15.956 8.01915C15.9698 7.93594 15.9871 7.81815 16.0028 7.6736C16.0341 7.38568 16.0594 6.98542 16.0342 6.53727C15.9902 5.75353 15.7866 4.73742 15.0992 3.95182C15.3437 3.07797 15.2876 2.14313 14.9334 1.29992C14.8635 1.13339 14.7167 1.01064 14.5415 0.969708L14.5396 0.969287L14.5359 0.968444L14.5275 0.966641L14.5264 0.966417C14.52 0.965069 14.5124 0.963586 14.5039 0.962026C14.4868 0.958905 14.4655 0.955474 14.4403 0.952187C14.3897 0.945611 14.3232 0.939626 14.2415 0.937835Z" fill="white"/>
<path fill-rule="evenodd" clip-rule="evenodd" d="M6.38103 13.143V14.2815C6.36067 14.284 6.34027 14.2864 6.31984 14.2885C5.87042 14.3359 5.41604 14.289 4.98581 14.1507C4.96681 14.1446 4.94814 14.1374 4.92989 14.1293C4.10953 13.7654 3.45234 13.1117 3.08398 12.2936C3.0103 12.1449 2.89537 12.0205 2.75285 11.9352C2.60822 11.8487 2.44148 11.8063 2.2731 11.8132C1.9627 11.826 1.70073 11.5847 1.68797 11.2743C1.6752 10.9639 1.91648 10.7019 2.22687 10.6892C2.61418 10.6732 2.99771 10.7708 3.33037 10.9698C3.66303 11.1688 3.93034 11.4606 4.09947 11.8094C4.10202 11.8146 4.1045 11.8199 4.10689 11.8253C4.3569 12.3848 4.802 12.8337 5.35851 13.0886C5.63119 13.172 5.918 13.1997 6.20179 13.1697C6.262 13.1634 6.3218 13.1545 6.38103 13.143Z" fill="white"/>
</svg>
