<svg width="16" height="16" viewBox="0 0 16 16" fill="none" xmlns="http://www.w3.org/2000/svg">
<path d="M12.3705 12.4597L11.8903 12.2195C11.8732 12.211 11.8555 12.2034 11.8375 12.1969L8.85436 11.1121C8.30246 10.9114 7.69754 10.9114 7.14564 11.1121L4.16246 12.1969C4.14446 12.2034 4.12685 12.211 4.10972 12.2195L3.63001 12.4594C3.61736 12.6416 3.61541 12.823 3.62146 13.0038C3.66512 14.3079 4.84201 15.1668 6.02786 15.1668H9.9726C11.1584 15.1668 12.3353 14.3079 12.379 13.0038C12.3851 12.8231 12.3831 12.6418 12.3705 12.4597Z" fill="#614BD0"/>
<path opacity="0.4" d="M3.62146 2.99642C3.6651 1.69228 4.842 0.833374 6.02786 0.833374H9.97249C11.1583 0.833374 12.3352 1.69228 12.3789 2.99642C12.4031 3.72059 12.2988 4.4561 11.8931 5.20755C11.4915 5.95157 10.8153 6.67238 9.7614 7.40973C9.59578 7.5256 9.489 7.74343 9.48983 8.00107C9.49067 8.25966 9.59969 8.47724 9.76136 8.59035C10.8153 9.3277 11.4915 10.0485 11.8932 10.7925C12.2038 11.3679 12.3377 11.9339 12.3726 12.4926C12.3719 12.4816 12.3712 12.4706 12.3704 12.4596L11.8902 12.2195C11.8731 12.2109 11.8554 12.2033 11.8374 12.1968L8.85426 11.112C8.30237 10.9113 7.69744 10.9113 7.14555 11.112L4.16236 12.1968C4.14436 12.2033 4.12675 12.2109 4.10962 12.2195L3.62991 12.4593C3.66794 11.9114 3.80264 11.3565 4.1071 10.7925C4.5088 10.0485 5.18501 9.32769 6.23897 8.59035C6.40065 8.47724 6.50967 8.25966 6.5105 8.00107C6.51134 7.74343 6.40456 7.5256 6.23894 7.40973C5.18505 6.67238 4.50887 5.95157 4.10719 5.20755C3.7015 4.4561 3.59722 3.72059 3.62146 2.99642Z" fill="#614BD0"/>
</svg>
