<svg width="351" height="731" viewBox="0 0 351 731" fill="none" xmlns="http://www.w3.org/2000/svg">
<path fill-rule="evenodd" clip-rule="evenodd" d="M0 49.6844C0 22.2444 22.2445 0 49.6844 0H300.543C327.983 0 350.227 22.2445 350.227 49.6844V681.316C350.227 708.756 327.983 731 300.543 731H49.6844C22.2444 731 0 708.756 0 681.316V49.6844ZM11.5464 49.8386C11.5464 28.6922 28.6889 11.5497 49.8353 11.5497H82.2655C84.9223 11.5498 87.076 13.7043 87.076 16.3621L87.0763 11.5497L87.0765 21.6082C87.0765 30.671 94.4233 38.0178 103.486 38.0178H246.262C255.324 38.0178 262.671 30.671 262.671 21.6082V16.259C262.726 13.6526 264.852 11.5558 267.469 11.5497H300.393C321.539 11.5497 338.682 28.6922 338.682 49.8386V680.68C338.682 701.827 321.539 718.969 300.393 718.969H49.8353C28.6889 718.969 11.5464 701.826 11.5464 680.68V49.8386Z" fill="#F5F5F5"/>
</svg>
