<svg width="18" height="18" viewBox="0 0 18 18" fill="none" xmlns="http://www.w3.org/2000/svg">
<path opacity="0.4" d="M4.875 0.937292C2.70041 0.937292 0.937548 2.70015 0.937548 4.87475V13.1246C0.937548 15.2992 2.70041 17.0621 4.875 17.0621H13.1249C15.2995 17.0621 17.0624 15.2992 17.0624 13.1246V4.87475C17.0624 2.70015 15.2995 0.937292 13.1249 0.937292H4.875Z" fill="white"/>
<path fill-rule="evenodd" clip-rule="evenodd" d="M12.9373 4.50004C12.9373 4.18938 13.1891 3.93755 13.4998 3.93755H13.5073C13.8179 3.93755 14.0698 4.18938 14.0698 4.50004C14.0698 4.8107 13.8179 5.06253 13.5073 5.06253H13.4998C13.1891 5.06253 12.9373 4.8107 12.9373 4.50004Z" fill="white"/>
<path fill-rule="evenodd" clip-rule="evenodd" d="M8.99988 6.56241C7.6537 6.56241 6.56241 7.6537 6.56241 8.99988C6.56241 10.3461 7.6537 11.4373 8.99988 11.4373C10.3461 11.4373 11.4373 10.3461 11.4373 8.99988C11.4373 7.6537 10.3461 6.56241 8.99988 6.56241ZM5.43742 8.99988C5.43742 7.03239 7.03239 5.43742 8.99988 5.43742C10.9674 5.43742 12.5623 7.03239 12.5623 8.99988C12.5623 10.9674 10.9674 12.5623 8.99988 12.5623C7.03239 12.5623 5.43742 10.9674 5.43742 8.99988Z" fill="white"/>
</svg>
