<svg width="18" height="18" viewBox="0 0 18 18" fill="none" xmlns="http://www.w3.org/2000/svg">
<path opacity="0.4" d="M11.6248 6.56258C8.82886 6.56258 6.56232 8.82911 6.56232 11.625V15.8522C6.56232 16.3135 6.93626 16.6875 7.39754 16.6875H9.809C10.2941 16.6875 10.6873 16.2942 10.6873 15.8092V11.625C10.6873 11.1073 11.107 10.6875 11.6248 10.6875C12.1425 10.6875 12.5623 11.1073 12.5623 11.625V15.8092C12.5623 16.2942 12.9555 16.6875 13.4405 16.6875H15.852C16.3133 16.6875 16.6872 16.3135 16.6872 15.8522V11.625C16.6872 8.82911 14.4207 6.56258 11.6248 6.56258Z" fill="white"/>
<path d="M3.37499 1.31252C2.23592 1.31252 1.31252 2.23592 1.31252 3.37499C1.31252 4.51407 2.23592 5.43747 3.37499 5.43747C4.51407 5.43747 5.43747 4.51407 5.43747 3.37499C5.43747 2.23592 4.51407 1.31252 3.37499 1.31252Z" fill="white"/>
<path d="M2.25 6.56245C1.73224 6.56245 1.31252 6.98218 1.31252 7.49994V15.7498C1.31252 16.2676 1.73224 16.6873 2.25 16.6873H4.49998C5.01774 16.6873 5.43747 16.2676 5.43747 15.7498V7.49994C5.43747 6.98218 5.01774 6.56245 4.49998 6.56245H2.25Z" fill="white"/>
</svg>
