<svg width="48" height="48" viewBox="0 0 48 48" fill="none" xmlns="http://www.w3.org/2000/svg">
<circle cx="24" cy="24" r="20" transform="rotate(90 24 24)" fill="url(#paint0_linear_622_1548)"/>
<path d="M4 24L44 24C44 35.0457 35.0457 44 24 44C12.9543 44 4 35.0457 4 24Z" fill="url(#paint1_linear_622_1548)"/>
<ellipse cx="24" cy="24" rx="12" ry="20" transform="rotate(90 24 24)" fill="url(#paint2_linear_622_1548)"/>
<path d="M4 24L44 24C44 30.6274 35.0457 36 24 36C12.9543 36 4 30.6274 4 24Z" fill="url(#paint3_linear_622_1548)"/>
<defs>
<linearGradient id="paint0_linear_622_1548" x1="24.7278" y1="4.48152" x2="24.7278" y2="43.9963" gradientUnits="userSpaceOnUse">
<stop stop-color="#8FD0FF"/>
<stop offset="1" stop-color="#E7F6FF"/>
</linearGradient>
<linearGradient id="paint1_linear_622_1548" x1="52.5714" y1="24" x2="14.9165" y2="52.886" gradientUnits="userSpaceOnUse">
<stop stop-color="#3360FF"/>
<stop offset="1" stop-color="#193F9F"/>
</linearGradient>
<linearGradient id="paint2_linear_622_1548" x1="24.4367" y1="4.48152" x2="24.4367" y2="43.9963" gradientUnits="userSpaceOnUse">
<stop stop-color="#5BBAFF"/>
<stop offset="1" stop-color="#ACE1FF"/>
</linearGradient>
<linearGradient id="paint3_linear_622_1548" x1="-6.00001" y1="34.9091" x2="14.7765" y2="3.63268" gradientUnits="userSpaceOnUse">
<stop stop-color="#25C4E7"/>
<stop offset="1" stop-color="#3B53CE"/>
</linearGradient>
</defs>
</svg>
