<svg width="18" height="18" viewBox="0 0 18 18" fill="none" xmlns="http://www.w3.org/2000/svg">
<path opacity="0.4" fill-rule="evenodd" clip-rule="evenodd" d="M4.12501 2.06245C2.36462 2.06245 0.937548 3.48953 0.937548 5.24991V12.7498C0.937548 14.5102 2.36462 15.9373 4.12501 15.9373H13.8749C15.6353 15.9373 17.0624 14.5102 17.0624 12.7498V5.24991C17.0624 3.48953 15.6353 2.06245 13.8749 2.06245H4.12501Z" fill="white"/>
<path fill-rule="evenodd" clip-rule="evenodd" d="M4.76773 6.46053C4.92756 6.19415 5.27308 6.10777 5.53946 6.2676L8.13182 7.82301C8.66621 8.14365 9.33382 8.14365 9.86822 7.82301L12.4606 6.2676C12.727 6.10777 13.0725 6.19415 13.2323 6.46053C13.3921 6.72692 13.3058 7.07244 13.0394 7.23227L10.447 8.78768C9.55636 9.32208 8.44367 9.32208 7.55302 8.78768L4.96066 7.23227C4.69428 7.07244 4.6079 6.72692 4.76773 6.46053Z" fill="white"/>
</svg>
