<svg width="48" height="48" viewBox="0 0 48 48" fill="none" xmlns="http://www.w3.org/2000/svg">
<path fill-rule="evenodd" clip-rule="evenodd" d="M3.62109 19.6839C2.47755 15.4162 5.01022 11.0295 9.27794 9.88599L17.7313 7.62091C21.9991 6.47737 26.3858 9.01003 27.5293 13.2778L32.4798 31.7534C33.6234 36.0212 31.0907 40.4078 26.823 41.5514L18.3696 43.8165C14.1019 44.96 9.71516 42.4273 8.57163 38.1596L3.62109 19.6839Z" fill="url(#paint0_linear_622_1251)"/>
<path fill-rule="evenodd" clip-rule="evenodd" d="M19.3151 10.2779C20.4586 6.01021 24.8453 3.47756 29.113 4.62109L38.7723 7.20928C43.04 8.35281 45.5727 12.7395 44.4291 17.0072L39.5597 35.1803C38.4161 39.4481 34.0294 41.9807 29.7617 40.8372L20.1025 38.249C15.8347 37.1055 13.3021 32.7188 14.4456 28.451L19.3151 10.2779Z" fill="url(#paint1_linear_622_1251)"/>
<path d="M30.0641 17.9812C30.604 17.4823 31.4796 17.7169 31.6977 18.419L32.7955 21.9527C33.0259 22.6944 32.8062 23.5023 32.2319 24.025L29.5331 26.4819C28.9943 26.9725 28.1286 26.7405 27.9072 26.0463L26.7984 22.5691C26.5624 21.8293 26.7761 21.0197 27.3464 20.4927L30.0641 17.9812Z" fill="url(#paint2_linear_622_1251)"/>
<defs>
<linearGradient id="paint0_linear_622_1251" x1="19.6291" y1="-4.25215" x2="28.0057" y2="45.0913" gradientUnits="userSpaceOnUse">
<stop stop-color="#FF5018"/>
<stop offset="1" stop-color="#FF9E0D"/>
</linearGradient>
<linearGradient id="paint1_linear_622_1251" x1="34.8437" y1="2.55239" x2="24.9321" y2="39.5431" gradientUnits="userSpaceOnUse">
<stop stop-color="#FFFBDB"/>
<stop offset="1" stop-color="#FFDBA5"/>
</linearGradient>
<linearGradient id="paint2_linear_622_1251" x1="28.9727" y1="29.9476" x2="27.5626" y2="14.9255" gradientUnits="userSpaceOnUse">
<stop stop-color="#D80000"/>
<stop offset="1" stop-color="#FF7A00"/>
</linearGradient>
</defs>
</svg>
