<svg width="42" height="38" viewBox="0 0 42 38" fill="none" xmlns="http://www.w3.org/2000/svg">
<path d="M2.72236 22.1249C3.08622 20.767 4.48268 19.9613 5.84064 20.3252C7.19825 20.6893 8.00422 22.0847 7.6404 23.4424L6.59535 27.3423L13.7437 23.2147L13.9754 23.0954C15.1522 22.5664 16.5619 23.005 17.2209 24.1464C17.8798 25.2879 17.5545 26.7279 16.508 27.4825L16.2892 27.6227L9.14088 31.7502L13.0397 32.7953C14.3976 33.1591 15.2033 34.5546 14.8395 35.9126C14.4756 37.2705 13.0802 38.0762 11.7222 37.7123L1.88711 35.0773C0.529259 34.7134 -0.27642 33.3179 0.0873401 31.96L2.72236 22.1249ZM36.1593 20.3252C37.5172 19.9613 38.9137 20.767 39.2776 22.1249L41.9126 31.96C42.2763 33.3178 41.4705 34.7133 40.1128 35.0773L30.2777 37.7123C28.9198 38.0762 27.5233 37.2705 27.1594 35.9126C26.7958 34.5548 27.6016 33.1593 28.9592 32.7953L32.859 31.7502L25.7107 27.6227L25.4919 27.4825C24.4454 26.7278 24.1201 25.2879 24.779 24.1464C25.438 23.005 26.8477 22.5664 28.0245 23.0954L28.2562 23.2147L35.4046 27.3423L34.3595 23.4424C33.9957 22.0846 34.8015 20.6891 36.1593 20.3252ZM19.2514 0.694752C20.2323 -0.23168 21.7665 -0.231488 22.7475 0.694752L28.8568 6.46495L29.0368 6.65288C29.88 7.62896 29.8639 9.10445 28.9592 10.0625C28.0544 11.0204 26.5822 11.121 25.5595 10.335L25.3607 10.1659L23.545 8.45066V14.7638C23.5446 16.1692 22.405 17.3092 20.9995 17.3093C19.594 17.3091 18.4543 16.1692 18.4539 14.7638V8.45066L16.6383 10.1659C15.6163 11.131 14.005 11.0842 13.0397 10.0625C12.075 9.04057 12.1207 7.43016 13.1421 6.46495L19.2514 0.694752Z" fill="url(#paint0_linear_0_159)"/>
<defs>
<linearGradient id="paint0_linear_0_159" x1="41.9999" y1="46.6591" x2="4.87348" y2="1.21462" gradientUnits="userSpaceOnUse">
<stop stop-color="#3662FD"/>
<stop offset="1" stop-color="#8673FF"/>
</linearGradient>
</defs>
</svg>
