<svg width="18" height="18" viewBox="0 0 18 18" fill="none" xmlns="http://www.w3.org/2000/svg">
<path opacity="0.4" fill-rule="evenodd" clip-rule="evenodd" d="M15.3853 2.59056C15.1591 2.37765 14.8031 2.38844 14.5902 2.61466L9.55565 7.96389C9.34273 8.19011 9.35352 8.5461 9.57974 8.75901C9.80596 8.97193 10.1619 8.96114 10.3749 8.73492L15.4094 3.38568C15.6223 3.15946 15.6116 2.80348 15.3853 2.59056ZM8.63542 9.76235C8.4092 9.54944 8.05321 9.56023 7.8403 9.78645L2.59036 15.3645C2.37745 15.5907 2.38824 15.9467 2.61446 16.1596C2.84068 16.3725 3.19666 16.3618 3.40958 16.1355L8.65952 10.5575C8.87243 10.3313 8.86164 9.97527 8.63542 9.76235Z" fill="white"/>
<path d="M2.99992 2.43768C2.78782 2.43768 2.59376 2.55698 2.498 2.74623C2.40225 2.93549 2.4211 3.16251 2.54674 3.33338L11.9216 16.0832C12.0276 16.2274 12.1959 16.3125 12.3748 16.3125H15.3748C15.5869 16.3125 15.7809 16.1932 15.8767 16.004C15.9724 15.8147 15.9536 15.5877 15.8279 15.4168L6.45305 2.66695C6.34706 2.5228 6.17881 2.43768 5.99988 2.43768H2.99992Z" fill="white"/>
</svg>
