<svg xmlns="http://www.w3.org/2000/svg" viewBox="0 0 415 100"><defs><style>.cls-1{fill:#39f;}.cls-2{fill:none;stroke:#f8f8f8;stroke-miterlimit:10;}</style></defs><g id="Layer_2" data-name="Layer 2"><g id="Logo"><g id="Name_Blue" data-name="Name Blue"><rect id="Background" class="cls-1" width="415" height="100" rx="10.01"/><g id="ADRIEL_ZIMBRIL" data-name="ADRIEL ZIMBRIL"><g id="ZIMBRIL"><path id="L" class="cls-2" d="M380.2,31.62V62.26H376V31.62ZM396.89,65v4H376V65Z"/><path id="I" class="cls-2" d="M362.22,69V31.62h4.16V69Z"/><path id="R" class="cls-2" d="M329.05,69V31.62h12.37a11.13,11.13,0,0,1,8.19,3,10.46,10.46,0,0,1,3.07,7.79,10.52,10.52,0,0,1-3.07,7.84,11.13,11.13,0,0,1-8.19,3h-5.6v-4h5.55a6.79,6.79,0,0,0,5.17-1.9,6.87,6.87,0,0,0,1.82-5,7,7,0,0,0-1.84-5,6.81,6.81,0,0,0-5.15-1.92h-8.16V69Zm22.61,0-9-12.86,4.32-.79L356.52,69Z"/><path id="B" class="cls-2" d="M318,50a9.79,9.79,0,0,1,3.89,8.27,10.47,10.47,0,0,1-3,7.76,11,11,0,0,1-8.14,3H296.2V31.62h12.1a10,10,0,0,1,7.28,2.69,9.31,9.31,0,0,1,2.75,6.94,9.88,9.88,0,0,1-2.75,7.11,9.64,9.64,0,0,1-7.28,2.86H303v-4h5a6,6,0,0,0,4.51-1.62,5.77,5.77,0,0,0,1.57-4.22,5.7,5.7,0,0,0-1.57-4.19A6.1,6.1,0,0,0,308,35.59h-7.62V65h10.08a7,7,0,0,0,5.28-1.93,6.94,6.94,0,0,0,1.86-5,7.14,7.14,0,0,0-2.45-5.44Z"/><path id="M" class="cls-2" d="M286.49,31v5.15L271.08,58.41h-1.5L254.12,36.15V31h1.49l14.67,21.63L285,31Zm-32.37,9.85,4.16,6V69h-4.16Zm32.37,0V69h-4.16V46.86Z"/><path id="I-2" data-name="I" class="cls-2" d="M240.3,69V31.62h4.16V69Z"/><path id="Z" class="cls-2" d="M205.74,69V67.7l23.95-36.08h3.9v1.31L209.64,69ZM208,35.59v-4h18.4l-2.46,4ZM212.89,69l2.51-4h18.24v4Z"/></g><g id="ADRIEL"><path id="L-2" data-name="L" class="cls-2" d="M173.8,31.62V62.26h-4.16V31.62ZM190.49,65v4H169.64V65Z"/><path id="E" class="cls-2" d="M139.45,69V31.62H162v4h-18.4V65h19v4Zm6.77-18.12v-3.8h11.52v3.8Z"/><path id="I-3" data-name="I" class="cls-2" d="M125.64,69V31.62h4.16V69Z"/><path id="R-2" data-name="R" class="cls-2" d="M92.46,69V31.62h12.38a11.12,11.12,0,0,1,8.18,3,10.46,10.46,0,0,1,3.07,7.79A10.52,10.52,0,0,1,113,50.28a11.12,11.12,0,0,1-8.18,3h-5.6v-4h5.54a6.41,6.41,0,0,0,7-6.85,6.93,6.93,0,0,0-1.84-5,6.8,6.8,0,0,0-5.15-1.92H96.62V69Zm22.62,0-9-12.86,4.32-.79L119.93,69Z"/><path id="D" class="cls-2" d="M59.61,31.62V69H55.45V31.62Zm6.29,0q8.8,0,14,5.16T85.05,50.2q0,8.27-5.17,13.53T65.9,69H62.22V65H65.9q6.88,0,10.88-4.17a14.74,14.74,0,0,0,4-10.67,14.4,14.4,0,0,0-4-10.54q-4-4.06-10.88-4.07H62.22v-4Z"/><path id="A" class="cls-2" d="M16.89,69,29.26,38.14l2.19,5.49-5.6,13.82h11.2l1.6,4H24.25l-3,7.59Zm27.63,0L30.65,34.57,32.14,31h1.55L48.94,69Z"/></g></g></g></g></g></svg>