<svg xmlns="http://www.w3.org/2000/svg" viewBox="0 0 415 100"><defs><style>.cls-1{fill:#f8f8f8;}.cls-2{fill:none;stroke:#39f;stroke-miterlimit:10;}</style></defs><g id="Layer_2" data-name="Layer 2"><g id="Logo"><g id="Name_White" data-name="Name White"><rect id="Background" class="cls-1" width="415" height="100" rx="10.01"/><g id="ADRIEL_ZIMBRIL" data-name="ADRIEL ZIMBRIL"><g id="ZIMBRIL"><path id="L" class="cls-2" d="M380.62,31.62V62.26h-4.16V31.62ZM397.31,65v4H376.46V65Z"/><path id="I" class="cls-2" d="M362.64,69V31.62h4.16V69Z"/><path id="R" class="cls-2" d="M329.47,69V31.62h12.37a11.13,11.13,0,0,1,8.19,3,10.5,10.5,0,0,1,3.07,7.79A10.55,10.55,0,0,1,350,50.28a11.13,11.13,0,0,1-8.19,3h-5.6v-4h5.55a6.79,6.79,0,0,0,5.17-1.9,6.87,6.87,0,0,0,1.82-5,7,7,0,0,0-1.84-5,6.81,6.81,0,0,0-5.15-1.92h-8.16V69Zm22.61,0-9-12.86,4.32-.79L356.94,69Z"/><path id="B" class="cls-2" d="M318.38,50a9.79,9.79,0,0,1,3.89,8.27,10.47,10.47,0,0,1-3,7.76,11,11,0,0,1-8.14,3h-14.5V31.62h12.1A10,10,0,0,1,316,34.31a9.31,9.31,0,0,1,2.75,6.94A9.88,9.88,0,0,1,316,48.36a9.65,9.65,0,0,1-7.28,2.86h-5.33v-4h5a6,6,0,0,0,4.51-1.62,5.77,5.77,0,0,0,1.57-4.22,5.7,5.7,0,0,0-1.57-4.19,6.1,6.1,0,0,0-4.51-1.58h-7.62V65h10.08a7,7,0,0,0,5.28-1.93,6.94,6.94,0,0,0,1.86-5,7.17,7.17,0,0,0-2.45-5.44Z"/><path id="M" class="cls-2" d="M286.91,31v5.15L271.5,58.41H270L254.54,36.15V31H256L270.7,52.63,285.42,31Zm-32.37,9.85,4.16,6V69h-4.16Zm32.37,0V69h-4.16V46.86Z"/><path id="I-2" data-name="I" class="cls-2" d="M240.72,69V31.62h4.16V69Z"/><path id="Z" class="cls-2" d="M206.16,69V67.7l24-36.08H234v1.31L210.06,69Zm2.3-33.41v-4h18.4l-2.46,4ZM213.31,69l2.51-4h18.24v4Z"/></g><g id="ADRIEL"><path id="L-2" data-name="L" class="cls-2" d="M174.22,31.62V62.26h-4.16V31.62ZM190.91,65v4H170.06V65Z"/><path id="E" class="cls-2" d="M139.87,69V31.62h22.56v4H144V65h19v4Zm6.77-18.12v-3.8h11.52v3.8Z"/><path id="I-3" data-name="I" class="cls-2" d="M126.06,69V31.62h4.16V69Z"/><path id="R-2" data-name="R" class="cls-2" d="M92.88,69V31.62h12.38a11.12,11.12,0,0,1,8.18,3,10.46,10.46,0,0,1,3.07,7.79,10.52,10.52,0,0,1-3.07,7.84,11.12,11.12,0,0,1-8.18,3h-5.6v-4h5.54a6.82,6.82,0,0,0,5.18-1.9,6.9,6.9,0,0,0,1.81-5,6.93,6.93,0,0,0-1.84-5,6.8,6.8,0,0,0-5.15-1.92H97V69Zm22.62,0-9-12.86,4.32-.79L120.35,69Z"/><path id="D" class="cls-2" d="M60,31.62V69H55.87V31.62Zm6.29,0q8.81,0,14,5.16T85.47,50.2q0,8.27-5.17,13.53T66.32,69H62.64V65h3.68q6.89,0,10.88-4.17a14.74,14.74,0,0,0,4-10.67,14.4,14.4,0,0,0-4-10.54q-4-4.06-10.88-4.07H62.64v-4Z"/><path id="A" class="cls-2" d="M17.31,69,29.68,38.14l2.19,5.49-5.6,13.82h11.2l1.6,4H24.67l-3,7.59Zm27.63,0L31.07,34.57,32.56,31h1.55L49.36,69Z"/></g></g></g></g></g></svg>