<svg viewBox="0 0 24 24" xmlns="http://www.w3.org/2000/svg">
  <path d="M12.013 2.006c-5.49 0-9.5 1.788-9.5 4.042v11.904c0 2.254 4.01 4.042 9.5 4.042s9.5-1.788 9.5-4.042V6.048c0-2.254-4.01-4.042-9.5-4.042zm0 1.744c4.637 0 7.846 1.496 7.846 2.298s-3.209 2.298-7.846 2.298-7.846-1.496-7.846-2.298 3.209-2.298 7.846-2.298zm-7.846 4.042c1.865 1.485 4.997 2.298 7.846 2.298s5.981-.813 7.846-2.298v2.298c0 1.02-3.372 2.298-7.846 2.298S4.167 11.11 4.167 10.09V7.792zm0 4.042c1.865 1.485 4.997 2.298 7.846 2.298s5.981-.813 7.846-2.298v2.298c0 1.02-3.372 2.298-7.846 2.298S4.167 15.152 4.167 14.132v-2.298zm0 4.042c1.865 1.485 4.997 2.298 7.846 2.298s5.981-.813 7.846-2.298v2.298c0 1.02-3.372 2.298-7.846 2.298S4.167 19.194 4.167 18.174v-2.298z" fill="#61DAFB"/>
</svg>
