<svg viewBox="0 0 54 32" xmlns="http://www.w3.org/2000/svg">
  <path d="M38.634 0a13.487 13.487 0 0 0-9.475 3.906 13.487 13.487 0 0 0-9.475-3.906C9.028 0 0 9.028 0 20.184c0 11.156 9.028 20.184 20.184 20.184a13.487 13.487 0 0 0 9.475-3.906 13.487 13.487 0 0 0 9.475 3.906C49.972 40.368 59 31.34 59 20.184 59 9.028 49.972 0 38.634 0z" fill="#06B6D4"/>
  <path d="M38.634 0c-7.654 0-13.866 6.212-13.866 13.866 0 7.654 6.212 13.866 13.866 13.866 3.732 0 7.132-1.48 9.654-3.906a13.487 13.487 0 0 1-9.475-3.906c-7.654 0-13.866-6.212-13.866-13.866 0-3.732 1.48-7.132 3.906-9.654A13.866 13.866 0 0 0 38.634 0z" fill="#3B82F6"/>
</svg>
