<svg viewBox="0 0 24 24" xmlns="http://www.w3.org/2000/svg">
  <path d="M1.125 0C.502 0 0 .502 0 1.125v21.75C0 23.498.502 24 1.125 24h21.75c.623 0 1.125-.502 1.125-1.125V1.125C24 .502 23.498 0 22.875 0zm17.363 9.75c.612 0 1.154.037 1.627.111a6.38 6.38 0 0 1 1.306.34v2.458a3.95 3.95 0 0 0-.643-.361 5.093 5.093 0 0 0-.717-.26 5.453 5.453 0 0 0-.775-.138 4.502 4.502 0 0 0-.8-.07 4.756 4.756 0 0 0-1.626.28 3.933 3.933 0 0 0-1.28.772 3.538 3.538 0 0 0-.814 1.205 4.377 4.377 0 0 0-.289 1.627c0 .613.096 1.155.289 1.627.192.472.452.873.78 1.205.328.331.722.584 1.182.758.46.174.967.261 1.522.261.636 0 1.186-.098 1.651-.294.465-.196.822-.42 1.07-.673v2.458a6.367 6.367 0 0 1-1.306.34 9.421 9.421 0 0 1-1.626.111c-.823 0-1.58-.118-2.27-.353a5.466 5.466 0 0 1-1.825-1.018 4.748 4.748 0 0 1-1.19-1.626 5.397 5.397 0 0 1-.422-2.184c0-.823.14-1.58.422-2.27a4.842 4.842 0 0 1 1.19-1.626 5.555 5.555 0 0 1 1.825-1.018c.69-.235 1.447-.353 2.27-.353zm-15.113.188h9.563v2.166H9.506v9.646H6.789v-9.646H3.375z" fill="#3178C6"/>
</svg>
